<?xml version="1.0" encoding="UTF-8"?>
<svg xmlns="http://www.w3.org/2000/svg" xmlns:xlink="http://www.w3.org/1999/xlink" width="250px" height="125px" viewBox="0 0 249 125" version="1.1">
<g id="surface1">
<path style=" stroke:none;fill-rule:evenodd;fill:rgb(0%,0%,0%);fill-opacity:1;" d="M 43.386719 34.269531 C 36.839844 35.140625 31.109375 39.75 29.007812 45.84375 C 27.183594 51.125 27.414062 55.445312 29.777344 60.269531 C 34.894531 70.726562 51.554688 73.21875 61.785156 65.058594 C 63.101562 64.007812 63.800781 63.757812 65.449219 63.757812 C 67.164062 63.757812 67.902344 64.046875 70.171875 65.601562 C 73.726562 68.039062 76.960938 69.199219 81.238281 69.574219 C 89.800781 70.324219 96.175781 68.011719 98.964844 63.148438 C 99.964844 61.402344 100.179688 60.546875 100.183594 58.261719 C 100.1875 55.859375 100.023438 55.269531 98.945312 53.78125 C 96.570312 50.5 93.4375 49.308594 83.265625 47.820312 C 80.066406 47.355469 76.820312 46.671875 76.050781 46.304688 C 73.457031 45.074219 73.613281 42.667969 76.382812 41.097656 C 77.847656 40.269531 78.757812 40.082031 81.324219 40.089844 C 85.054688 40.101562 87.8125 41.164062 90.230469 43.519531 L 91.804688 45.054688 L 91.804688 39.847656 L 103.539062 39.847656 L 103.539062 83.894531 L 110.667969 83.894531 L 110.667969 64.929688 L 112.21875 66.292969 C 115.117188 68.839844 117.011719 69.421875 122.402344 69.421875 C 127.011719 69.421875 127.359375 69.359375 130.265625 67.996094 C 133.871094 66.304688 136.613281 63.589844 138.257812 60.074219 C 139.308594 57.832031 139.382812 57.296875 139.382812 51.804688 L 139.382812 45.929688 L 137.917969 43.203125 C 137.113281 41.707031 136.390625 40.335938 136.308594 40.164062 C 136.230469 39.992188 137.882812 39.847656 139.976562 39.847656 L 143.78125 39.847656 L 143.78125 69.632812 L 150.910156 69.632812 L 150.914062 60.296875 C 150.914062 49.855469 151.324219 46.320312 152.816406 43.765625 C 154.441406 40.980469 156.28125 40.097656 160.96875 39.851562 L 164.953125 39.640625 L 165.074219 36.808594 L 165.199219 33.976562 L 161.769531 33.976562 C 159.886719 33.976562 157.613281 34.195312 156.71875 34.464844 C 154.824219 35.03125 152.144531 37.210938 150.433594 39.574219 L 149.230469 41.234375 L 149.230469 33.976562 L 134.8125 33.976562 C 118.390625 33.976562 116.964844 34.191406 112.886719 37.304688 L 110.703125 38.96875 L 110.417969 36.4375 L 110.132812 33.902344 L 93.945312 34.089844 C 76.40625 34.292969 74.816406 34.472656 71.0625 36.675781 C 67.335938 38.859375 65.476562 43.398438 66.875 46.894531 C 68.546875 51.078125 73.085938 53.316406 83.628906 55.167969 C 90.144531 56.3125 90.964844 56.789062 90.964844 59.433594 C 90.964844 61.867188 89.261719 63.171875 85.613281 63.539062 C 79.101562 64.191406 74.53125 62.601562 72.679688 59.039062 L 72.078125 57.886719 L 59.90625 57.886719 L 57.386719 59.984375 C 53.789062 62.980469 52.671875 63.460938 48.835938 63.664062 C 42.234375 64.011719 37.777344 60.910156 35.863281 54.636719 L 35.574219 53.691406 L 65.472656 53.691406 L 65.179688 51.488281 C 63.632812 39.796875 54.730469 32.761719 43.386719 34.269531 M 43.074219 40.421875 C 39.855469 41.621094 37.847656 43.667969 36.707031 46.902344 L 36.085938 48.65625 L 57.78125 48.65625 L 57.136719 47.015625 C 56.238281 44.730469 54.355469 42.5625 52.128906 41.257812 C 49.824219 39.90625 45.515625 39.507812 43.074219 40.421875 M 118.691406 40.75 C 115.363281 41.707031 112.347656 44.6875 111.152344 48.195312 C 110.886719 48.980469 110.667969 50.773438 110.671875 52.179688 C 110.683594 60.53125 119.03125 65.910156 126.382812 62.3125 C 130.429688 60.328125 132.585938 56.722656 132.585938 51.945312 C 132.585938 44.34375 125.640625 38.746094 118.691406 40.75 "/>
<path style=" stroke:none;fill-rule:evenodd;fill:rgb(0%,0%,0%);fill-opacity:1;" d="M 115.972656 76.269531 C 115.152344 77.175781 115.058594 78.996094 115.800781 79.601562 C 116.089844 79.839844 117.128906 80.269531 118.105469 80.558594 C 119.367188 80.933594 119.890625 81.316406 119.890625 81.863281 C 119.890625 82.972656 117.5625 82.921875 116.855469 81.796875 C 116.195312 80.734375 114.859375 80.6875 114.859375 81.722656 C 114.859375 84.09375 119.285156 85.246094 121.074219 83.339844 C 122.769531 81.535156 121.8125 79.652344 118.824219 78.898438 C 116.722656 78.367188 116.46875 77.480469 118.351562 77.257812 C 119.074219 77.171875 119.5625 77.359375 119.726562 77.78125 C 120.097656 78.746094 121.566406 78.621094 121.566406 77.625 C 121.566406 75.714844 117.386719 74.703125 115.972656 76.269531 M 132.96875 76.007812 C 132.691406 76.285156 132.464844 76.859375 132.464844 77.289062 C 132.464844 77.71875 132.277344 77.953125 132.046875 77.808594 C 131.816406 77.667969 131.625 77.941406 131.625 78.414062 C 131.625 78.890625 131.816406 79.277344 132.046875 79.277344 C 132.277344 79.277344 132.464844 80.398438 132.464844 81.796875 C 132.464844 84.03125 132.558594 84.3125 133.304688 84.3125 C 134.046875 84.3125 134.140625 84.03125 134.140625 81.796875 C 134.140625 79.835938 134.28125 79.277344 134.769531 79.277344 C 135.632812 79.277344 135.5625 78.15625 134.664062 77.632812 C 133.964844 77.226562 133.964844 77.207031 134.664062 77.195312 C 135.113281 77.1875 135.398438 76.855469 135.398438 76.34375 C 135.398438 75.382812 133.8125 75.164062 132.96875 76.007812 M 183.605469 76.609375 C 183.605469 76.988281 183.277344 77.554688 182.871094 77.867188 C 182.171875 78.414062 182.171875 78.46875 182.871094 79.011719 C 183.382812 79.40625 183.605469 80.167969 183.605469 81.511719 C 183.605469 83.5625 184.515625 84.582031 185.882812 84.054688 C 186.71875 83.734375 186.742188 82.632812 185.910156 82.632812 C 184.988281 82.632812 185.070312 79.746094 186.015625 79.011719 C 186.714844 78.46875 186.714844 78.414062 186.015625 77.867188 C 185.613281 77.554688 185.28125 76.988281 185.28125 76.609375 C 185.28125 76.203125 184.941406 75.921875 184.445312 75.921875 C 183.945312 75.921875 183.605469 76.203125 183.605469 76.609375 M 220.496094 76.761719 C 220.496094 77.222656 220.304688 77.601562 220.074219 77.601562 C 219.84375 77.601562 219.65625 77.882812 219.65625 78.230469 C 219.65625 78.574219 219.84375 78.859375 220.074219 78.859375 C 220.304688 78.859375 220.496094 79.691406 220.496094 80.710938 C 220.496094 83.316406 220.804688 83.894531 222.214844 83.894531 C 223.511719 83.894531 223.917969 82.910156 222.800781 82.480469 C 222.386719 82.324219 222.171875 81.667969 222.171875 80.550781 C 222.171875 79.328125 222.34375 78.859375 222.800781 78.859375 C 223.144531 78.859375 223.429688 78.574219 223.429688 78.230469 C 223.429688 77.882812 223.144531 77.601562 222.800781 77.601562 C 222.453125 77.601562 222.171875 77.226562 222.171875 76.761719 C 222.171875 76.203125 221.890625 75.921875 221.332031 75.921875 C 220.773438 75.921875 220.496094 76.203125 220.496094 76.761719 M 123.507812 78.46875 C 121.21875 80.269531 122.488281 84.3125 125.339844 84.3125 C 126.554688 84.3125 128.273438 83.082031 128.273438 82.214844 C 128.273438 81.984375 127.894531 81.796875 127.433594 81.796875 C 126.972656 81.796875 126.597656 81.964844 126.597656 82.167969 C 126.597656 82.804688 125.265625 83.09375 124.65625 82.589844 C 123.613281 81.726562 124.050781 81.375 126.175781 81.375 C 128.117188 81.375 128.273438 81.300781 128.273438 80.359375 C 128.273438 79.242188 126.527344 77.601562 125.339844 77.601562 C 124.9375 77.601562 124.117188 77.992188 123.507812 78.46875 M 136.429688 78.628906 C 134.355469 80.703125 135.820312 84.3125 138.734375 84.3125 C 140.539062 84.3125 141.6875 83.015625 141.6875 80.972656 C 141.6875 77.875 138.570312 76.484375 136.429688 78.628906 M 142.707031 77.980469 C 142.605469 78.078125 142.523438 79.542969 142.523438 81.234375 C 142.523438 84.003906 142.605469 84.3125 143.34375 84.3125 C 144.03125 84.3125 144.179688 83.96875 144.285156 82.109375 C 144.390625 80.292969 144.578125 79.835938 145.355469 79.492188 C 145.875 79.265625 146.296875 78.769531 146.296875 78.394531 C 146.296875 77.863281 145.910156 77.71875 144.59375 77.753906 C 143.65625 77.777344 142.804688 77.878906 142.707031 77.980469 M 146.71875 81.054688 C 146.71875 83.988281 146.800781 84.355469 147.449219 84.234375 C 148.027344 84.125 148.210938 83.585938 148.308594 81.6875 C 148.417969 79.644531 148.558594 79.277344 149.230469 79.277344 C 149.90625 79.277344 150.046875 79.644531 150.15625 81.6875 C 150.253906 83.585938 150.433594 84.125 151.015625 84.234375 C 151.625 84.351562 151.746094 84.058594 151.746094 82.488281 C 151.746094 80.078125 152.066406 79.277344 153.027344 79.277344 C 153.675781 79.277344 153.820312 79.671875 153.925781 81.691406 C 154.023438 83.5 154.210938 84.101562 154.683594 84.101562 C 155.488281 84.101562 155.820312 79.09375 155.070312 78.195312 C 154.5 77.503906 152.339844 77.398438 151.945312 78.039062 C 151.769531 78.324219 151.5 78.335938 151.1875 78.078125 C 150.917969 77.855469 149.804688 77.6875 148.707031 77.703125 L 146.71875 77.734375 L 146.71875 81.054688 M 157.269531 78.570312 C 155.300781 80.667969 156.636719 84.3125 159.371094 84.3125 C 160.519531 84.3125 162.226562 83.058594 162.226562 82.214844 C 162.226562 81.648438 161.136719 81.683594 160.179688 82.28125 C 159.34375 82.804688 158.035156 82.515625 158.035156 81.808594 C 158.035156 81.570312 158.972656 81.375 160.132812 81.375 C 162.046875 81.375 162.226562 81.292969 162.226562 80.398438 C 162.226562 79.140625 160.582031 77.601562 159.234375 77.601562 C 158.65625 77.601562 157.769531 78.039062 157.269531 78.570312 M 163.066406 80.988281 C 163.066406 83.984375 163.148438 84.359375 163.800781 84.234375 C 164.359375 84.128906 164.582031 83.550781 164.742188 81.792969 C 164.925781 79.796875 165.078125 79.46875 165.894531 79.355469 C 166.5 79.269531 166.839844 78.929688 166.839844 78.410156 C 166.839844 77.492188 165.621094 77.308594 164.828125 78.105469 C 164.433594 78.496094 164.324219 78.496094 164.324219 78.105469 C 164.324219 77.828125 164.039062 77.601562 163.695312 77.601562 C 163.1875 77.601562 163.066406 78.257812 163.066406 80.988281 M 170.925781 78.054688 C 170.105469 78.53125 169.917969 80.117188 170.683594 80.117188 C 170.953125 80.117188 171.492188 79.828125 171.878906 79.476562 C 172.269531 79.125 172.894531 78.957031 173.273438 79.101562 C 174.191406 79.457031 173.730469 80.117188 172.566406 80.117188 C 171.292969 80.117188 169.773438 81.253906 169.773438 82.207031 C 169.773438 83.652344 170.847656 84.226562 173.519531 84.199219 L 176.035156 84.175781 L 175.78125 81.621094 C 175.644531 80.21875 175.242188 78.738281 174.890625 78.335938 C 174.191406 77.527344 172.085938 77.378906 170.925781 78.054688 M 176.480469 80.261719 C 176.480469 83.722656 177.203125 84.507812 180.003906 84.085938 L 181.929688 83.796875 L 181.929688 80.667969 C 181.929688 77.914062 181.839844 77.554688 181.195312 77.679688 C 180.636719 77.785156 180.414062 78.363281 180.253906 80.121094 C 180.074219 82.074219 179.914062 82.425781 179.203125 82.425781 C 178.476562 82.425781 178.347656 82.101562 178.242188 80.011719 C 178.132812 77.945312 178 77.601562 177.296875 77.601562 C 176.574219 77.601562 176.480469 77.902344 176.480469 80.261719 M 186.960938 80.78125 C 186.960938 83.613281 187.035156 83.894531 187.796875 83.894531 C 188.492188 83.894531 188.636719 83.613281 188.636719 82.25 C 188.636719 80.0625 188.980469 79.277344 189.9375 79.277344 C 190.441406 79.277344 190.730469 78.984375 190.730469 78.472656 C 190.730469 77.800781 190.425781 77.671875 188.847656 77.671875 L 186.960938 77.671875 L 186.960938 80.78125 M 191.546875 78.460938 C 190.902344 79.109375 190.71875 79.753906 190.8125 81.042969 C 191.035156 84.003906 193.933594 85.242188 195.941406 83.234375 C 197.242188 81.933594 196.222656 81.238281 194.554688 82.28125 C 193.71875 82.804688 192.410156 82.515625 192.410156 81.808594 C 192.410156 81.570312 193.34375 81.375 194.503906 81.375 C 196.460938 81.375 196.601562 81.304688 196.601562 80.328125 C 196.601562 77.925781 193.300781 76.707031 191.546875 78.460938 M 197.4375 80.8125 C 197.4375 83.585938 197.519531 83.894531 198.257812 83.894531 C 198.957031 83.894531 199.09375 83.550781 199.199219 81.480469 C 199.292969 79.671875 199.484375 79.070312 199.953125 79.070312 C 200.425781 79.070312 200.613281 79.671875 200.710938 81.480469 C 200.816406 83.550781 200.949219 83.894531 201.652344 83.894531 C 202.351562 83.894531 202.46875 83.59375 202.46875 81.847656 C 202.46875 79.789062 203.234375 78.503906 204.128906 79.058594 C 204.367188 79.207031 204.566406 80.355469 204.566406 81.609375 C 204.566406 83.613281 204.667969 83.894531 205.402344 83.894531 C 206.152344 83.894531 206.242188 83.613281 206.242188 81.25 C 206.242188 79.753906 206.023438 78.390625 205.738281 78.105469 C 205.121094 77.484375 203.035156 77.441406 202.667969 78.039062 C 202.492188 78.324219 202.222656 78.335938 201.910156 78.078125 C 201.640625 77.855469 200.527344 77.6875 199.429688 77.703125 L 197.4375 77.734375 L 197.4375 80.8125 M 207.917969 78.441406 C 206.636719 79.722656 206.777344 82.332031 208.183594 83.441406 C 208.792969 83.921875 209.617188 84.3125 210.015625 84.3125 C 210.835938 84.3125 212.949219 82.777344 212.949219 82.183594 C 212.949219 81.644531 211.835938 81.699219 210.902344 82.28125 C 210.066406 82.804688 208.757812 82.515625 208.757812 81.808594 C 208.757812 81.570312 209.691406 81.375 210.855469 81.375 C 212.808594 81.375 212.949219 81.304688 212.949219 80.328125 C 212.949219 78.902344 211.546875 77.601562 210.015625 77.601562 C 209.316406 77.601562 208.386719 77.972656 207.917969 78.441406 M 213.789062 80.820312 C 213.789062 83.585938 213.871094 83.894531 214.605469 83.894531 C 215.304688 83.894531 215.441406 83.550781 215.546875 81.480469 C 215.65625 79.390625 215.785156 79.070312 216.511719 79.070312 C 217.238281 79.070312 217.367188 79.390625 217.476562 81.480469 C 217.585938 83.550781 217.71875 83.894531 218.421875 83.894531 C 219.144531 83.894531 219.238281 83.589844 219.238281 81.21875 C 219.238281 79.542969 219.035156 78.375 218.695312 78.09375 C 218.398438 77.847656 217.171875 77.667969 215.972656 77.695312 L 213.789062 77.742188 L 213.789062 80.820312 M 192.828125 79.488281 C 192.382812 80.027344 192.503906 80.117188 193.667969 80.117188 C 194.828125 80.117188 194.949219 80.027344 194.503906 79.488281 C 194.21875 79.140625 193.839844 78.859375 193.667969 78.859375 C 193.492188 78.859375 193.117188 79.140625 192.828125 79.488281 M 209.175781 79.488281 C 208.730469 80.027344 208.855469 80.117188 210.015625 80.117188 C 211.175781 80.117188 211.300781 80.027344 210.855469 79.488281 C 210.566406 79.140625 210.1875 78.859375 210.015625 78.859375 C 209.839844 78.859375 209.464844 79.140625 209.175781 79.488281 M 124.289062 79.699219 C 124.136719 79.945312 124.574219 80.117188 125.339844 80.117188 C 126.101562 80.117188 126.539062 79.945312 126.386719 79.699219 C 126.242188 79.46875 125.773438 79.277344 125.339844 79.277344 C 124.90625 79.277344 124.433594 79.46875 124.289062 79.699219 M 137.292969 80.09375 C 136.8125 81.605469 137.429688 82.699219 138.683594 82.554688 C 139.65625 82.441406 139.800781 82.234375 139.800781 80.957031 C 139.800781 79.679688 139.65625 79.472656 138.683594 79.359375 C 137.859375 79.261719 137.496094 79.457031 137.292969 80.09375 M 158.246094 79.699219 C 158.09375 79.945312 158.527344 80.117188 159.292969 80.117188 C 160.058594 80.117188 160.492188 79.945312 160.339844 79.699219 C 160.199219 79.46875 159.726562 79.277344 159.292969 79.277344 C 158.859375 79.277344 158.386719 79.46875 158.246094 79.699219 M 171.730469 81.65625 C 171.167969 82.21875 171.472656 82.632812 172.453125 82.632812 C 173.003906 82.632812 173.5625 82.351562 173.695312 82.003906 C 173.867188 81.558594 173.660156 81.375 172.972656 81.375 C 172.441406 81.375 171.882812 81.5 171.730469 81.65625 "/>
<path style=" stroke:none;fill-rule:evenodd;fill:rgb(0%,0%,0%);fill-opacity:1;" d="M 28.800781 95.902344 C 28.636719 96.066406 28.503906 97.6875 28.503906 99.511719 C 28.503906 102.710938 28.539062 102.820312 29.449219 102.691406 C 30.125 102.597656 30.429688 102.230469 30.523438 101.40625 C 30.628906 100.5 30.875 100.25 31.675781 100.25 C 32.53125 100.25 32.695312 100.457031 32.695312 101.511719 C 32.695312 102.496094 32.882812 102.769531 33.550781 102.769531 C 34.355469 102.769531 34.398438 102.550781 34.285156 99.308594 C 34.1875 96.566406 34.035156 95.847656 33.535156 95.847656 C 33.140625 95.847656 32.859375 96.328125 32.78125 97.148438 C 32.671875 98.269531 32.515625 98.421875 31.652344 98.257812 C 30.941406 98.121094 30.609375 97.742188 30.519531 96.960938 C 30.394531 95.898438 29.410156 95.292969 28.800781 95.902344 M 39.117188 96.058594 C 37.027344 96.902344 36.597656 100.46875 38.414062 101.898438 C 40.683594 103.6875 44.015625 102.335938 44.015625 99.625 C 44.015625 97.644531 43.664062 96.953125 42.308594 96.25 C 40.976562 95.5625 40.433594 95.527344 39.117188 96.058594 M 46.949219 99.203125 C 46.949219 102.488281 47.015625 102.769531 47.789062 102.769531 C 48.492188 102.769531 48.625 102.488281 48.625 101.003906 L 48.625 99.238281 L 50.421875 101.003906 C 51.414062 101.972656 52.363281 102.769531 52.535156 102.769531 C 52.710938 102.769531 52.796875 101.210938 52.730469 99.308594 C 52.621094 96.167969 52.53125 95.847656 51.769531 95.847656 C 51.144531 95.847656 50.878906 96.195312 50.722656 97.238281 L 50.511719 98.628906 L 49.066406 97.132812 C 48.273438 96.3125 47.472656 95.636719 47.285156 95.636719 C 47.101562 95.636719 46.949219 97.242188 46.949219 99.203125 M 56.558594 96.863281 C 53.648438 99.773438 56.644531 104.007812 60.554688 102.507812 C 61.382812 102.191406 62.460938 100.199219 62.460938 98.980469 C 62.460938 97.714844 60.246094 95.636719 58.894531 95.636719 C 58.226562 95.636719 57.296875 96.125 56.558594 96.863281 M 65.253906 95.917969 C 65.101562 96.070312 64.976562 97.675781 64.976562 99.484375 C 64.976562 102.488281 65.046875 102.769531 65.8125 102.769531 C 66.464844 102.769531 66.652344 102.488281 66.652344 101.511719 C 66.652344 100.816406 66.796875 100.25 66.980469 100.25 C 67.160156 100.25 67.519531 100.816406 67.78125 101.511719 C 68.082031 102.304688 68.550781 102.769531 69.058594 102.769531 C 70.273438 102.769531 70.449219 102.359375 69.71875 101.242188 C 69.113281 100.316406 69.113281 100.164062 69.738281 99.472656 C 71.269531 97.78125 69.816406 95.636719 67.140625 95.636719 C 66.257812 95.636719 65.40625 95.761719 65.253906 95.917969 M 73.128906 96.171875 C 73 96.5 72.953125 98.070312 73.023438 99.664062 C 73.136719 102.320312 73.230469 102.570312 74.109375 102.695312 C 75.054688 102.828125 75.066406 102.769531 74.949219 99.34375 C 74.84375 96.410156 74.707031 95.835938 74.089844 95.714844 C 73.6875 95.640625 73.253906 95.84375 73.128906 96.171875 M 78.371094 96.40625 C 77.167969 97.378906 77.488281 99.058594 79.007812 99.75 C 80.359375 100.367188 80.402344 101.191406 79.0625 100.855469 C 77.875 100.554688 77.265625 101.292969 77.984375 102.15625 C 78.597656 102.894531 80.960938 102.964844 81.660156 102.265625 C 81.933594 101.988281 82.160156 101.222656 82.160156 100.566406 C 82.160156 99.679688 81.839844 99.191406 80.90625 98.660156 C 79.554688 97.890625 79.121094 97.003906 80.441406 97.710938 C 81.039062 98.03125 81.371094 97.972656 81.789062 97.472656 C 82.253906 96.910156 82.214844 96.714844 81.542969 96.222656 C 80.460938 95.429688 79.503906 95.488281 78.371094 96.40625 M 88.449219 96.476562 C 88.449219 96.707031 88.636719 96.894531 88.867188 96.894531 C 89.101562 96.894531 89.289062 97.988281 89.289062 99.328125 C 89.289062 102.109375 89.738281 102.769531 91.648438 102.769531 C 93.632812 102.769531 94.316406 101.847656 94.316406 99.171875 C 94.316406 97.921875 94.507812 96.894531 94.738281 96.894531 C 94.96875 96.894531 95.15625 96.707031 95.15625 96.476562 C 95.15625 96.246094 94.589844 96.058594 93.898438 96.058594 C 93.207031 96.058594 92.640625 96.246094 92.640625 96.476562 C 92.640625 96.707031 92.839844 96.894531 93.082031 96.894531 C 93.351562 96.894531 93.472656 97.824219 93.394531 99.308594 C 93.273438 101.679688 93.25 101.71875 92.011719 101.71875 C 90.777344 101.71875 90.753906 101.679688 90.628906 99.308594 C 90.550781 97.824219 90.671875 96.894531 90.945312 96.894531 C 91.1875 96.894531 91.382812 96.707031 91.382812 96.476562 C 91.382812 96.246094 90.722656 96.058594 89.917969 96.058594 C 89.109375 96.058594 88.449219 96.246094 88.449219 96.476562 M 96.832031 96.476562 C 96.832031 96.707031 97.023438 96.894531 97.253906 96.894531 C 97.847656 96.894531 97.773438 101.660156 97.167969 102.265625 C 96.777344 102.65625 96.964844 102.769531 98.007812 102.769531 C 98.746094 102.769531 99.347656 102.578125 99.347656 102.347656 C 99.347656 102.117188 99.160156 101.929688 98.929688 101.929688 C 98.699219 101.929688 98.515625 101.128906 98.523438 100.148438 L 98.535156 98.363281 L 100.605469 100.671875 L 102.675781 102.976562 L 102.6875 100.171875 C 102.695312 98.628906 102.890625 97.25 103.121094 97.105469 C 103.894531 96.628906 103.550781 96.058594 102.492188 96.058594 C 101.433594 96.058594 101.089844 96.628906 101.863281 97.105469 C 102.09375 97.25 102.277344 98.0625 102.273438 98.914062 L 102.261719 100.460938 L 100.347656 98.257812 C 98.625 96.277344 96.832031 95.367188 96.832031 96.476562 M 105.636719 96.476562 C 105.636719 96.707031 105.824219 96.894531 106.054688 96.894531 C 106.652344 96.894531 106.578125 101.660156 105.972656 102.265625 C 105.582031 102.65625 105.832031 102.769531 107.105469 102.769531 C 108.375 102.769531 108.625 102.65625 108.234375 102.265625 C 107.628906 101.660156 107.554688 96.894531 108.152344 96.894531 C 108.382812 96.894531 108.570312 96.707031 108.570312 96.476562 C 108.570312 96.246094 107.910156 96.058594 107.105469 96.058594 C 106.296875 96.058594 105.636719 96.246094 105.636719 96.476562 M 110.679688 97.210938 C 110.691406 98.195312 110.753906 98.257812 111.121094 97.628906 C 111.355469 97.226562 111.820312 96.894531 112.15625 96.894531 C 112.925781 96.894531 113.015625 101.507812 112.257812 102.265625 C 111.867188 102.65625 112.121094 102.769531 113.390625 102.769531 C 114.664062 102.769531 114.914062 102.65625 114.523438 102.265625 C 113.867188 101.609375 113.847656 96.894531 114.5 96.894531 C 114.761719 96.894531 115.226562 97.226562 115.53125 97.628906 C 116.039062 98.296875 116.089844 98.257812 116.101562 97.210938 C 116.117188 96.070312 116.085938 96.058594 113.390625 96.058594 C 110.695312 96.058594 110.667969 96.070312 110.679688 97.210938 M 118.210938 96.476562 C 118.210938 96.707031 118.402344 96.894531 118.632812 96.894531 C 118.863281 96.894531 119.050781 98.015625 119.050781 99.414062 C 119.050781 100.8125 118.863281 101.929688 118.632812 101.929688 C 118.402344 101.929688 118.210938 102.117188 118.210938 102.347656 C 118.210938 102.582031 119.316406 102.769531 120.683594 102.769531 C 122.546875 102.769531 123.214844 102.605469 123.40625 102.105469 C 123.875 100.882812 123.667969 100.535156 122.894531 101.234375 C 121.6875 102.328125 120.308594 102.140625 120.308594 100.882812 C 120.308594 100.113281 120.53125 99.832031 121.144531 99.832031 C 121.609375 99.832031 121.984375 100.03125 121.984375 100.277344 C 121.984375 100.519531 122.171875 100.605469 122.402344 100.460938 C 122.632812 100.320312 122.824219 99.742188 122.824219 99.179688 C 122.824219 98.613281 122.632812 98.15625 122.402344 98.15625 C 122.171875 98.15625 121.984375 98.34375 121.984375 98.574219 C 121.984375 98.804688 121.609375 98.992188 121.144531 98.992188 C 120.53125 98.992188 120.308594 98.714844 120.308594 97.945312 C 120.308594 97.105469 120.519531 96.894531 121.355469 96.894531 C 121.933594 96.894531 122.402344 97.085938 122.402344 97.316406 C 122.402344 97.546875 122.59375 97.734375 122.824219 97.734375 C 123.054688 97.734375 123.242188 97.355469 123.242188 96.894531 C 123.242188 96.148438 122.960938 96.058594 120.726562 96.058594 C 119.332031 96.058594 118.210938 96.242188 118.210938 96.476562 M 126.097656 98.742188 C 126.214844 100.570312 126.097656 101.730469 125.753906 102.140625 C 125.304688 102.683594 125.550781 102.769531 127.613281 102.769531 C 129.574219 102.769531 130.167969 102.589844 131.015625 101.738281 C 132.253906 100.5 132.363281 98.640625 131.277344 97.296875 C 130.695312 96.582031 129.945312 96.300781 128.214844 96.15625 L 125.921875 95.96875 L 126.097656 98.742188 M 138.332031 96.476562 C 138.332031 96.707031 138.523438 96.894531 138.753906 96.894531 C 138.984375 96.894531 139.171875 97.988281 139.171875 99.328125 C 139.171875 102.109375 139.625 102.769531 141.53125 102.769531 C 143.519531 102.769531 144.203125 101.847656 144.203125 99.171875 C 144.203125 97.921875 144.390625 96.894531 144.621094 96.894531 C 144.851562 96.894531 145.039062 96.707031 145.039062 96.476562 C 145.039062 96.246094 144.472656 96.058594 143.78125 96.058594 C 143.089844 96.058594 142.523438 96.246094 142.523438 96.476562 C 142.523438 96.707031 142.722656 96.894531 142.964844 96.894531 C 143.234375 96.894531 143.355469 97.824219 143.28125 99.308594 C 143.15625 101.679688 143.132812 101.71875 141.894531 101.71875 C 140.660156 101.71875 140.636719 101.679688 140.511719 99.308594 C 140.4375 97.824219 140.558594 96.894531 140.828125 96.894531 C 141.070312 96.894531 141.269531 96.707031 141.269531 96.476562 C 141.269531 96.246094 140.609375 96.058594 139.800781 96.058594 C 138.992188 96.058594 138.332031 96.246094 138.332031 96.476562 M 146.71875 96.476562 C 146.71875 96.707031 146.90625 96.894531 147.136719 96.894531 C 147.734375 96.894531 147.660156 101.660156 147.050781 102.265625 C 146.660156 102.65625 146.847656 102.769531 147.890625 102.769531 C 148.628906 102.769531 149.230469 102.578125 149.230469 102.347656 C 149.230469 102.117188 149.042969 101.929688 148.8125 101.929688 C 148.582031 101.929688 148.398438 101.128906 148.40625 100.148438 L 148.421875 98.363281 L 150.488281 100.671875 L 152.558594 102.976562 L 152.574219 99.9375 C 152.578125 98.199219 152.765625 96.894531 153.003906 96.894531 C 153.234375 96.894531 153.425781 96.707031 153.425781 96.476562 C 153.425781 96.246094 152.976562 96.058594 152.429688 96.058594 C 151.492188 96.058594 151.441406 96.175781 151.628906 98.050781 L 151.824219 100.042969 L 150.078125 98.050781 C 148.492188 96.242188 146.71875 95.414062 146.71875 96.476562 M 155.519531 96.476562 C 155.519531 96.707031 155.707031 96.894531 155.9375 96.894531 C 156.535156 96.894531 156.460938 101.660156 155.855469 102.265625 C 155.464844 102.65625 155.714844 102.769531 156.988281 102.769531 C 158.257812 102.769531 158.511719 102.65625 158.121094 102.265625 C 157.511719 101.660156 157.4375 96.894531 158.035156 96.894531 C 158.265625 96.894531 158.453125 96.707031 158.453125 96.476562 C 158.453125 96.246094 157.792969 96.058594 156.988281 96.058594 C 156.179688 96.058594 155.519531 96.246094 155.519531 96.476562 M 160.132812 96.441406 C 160.132812 96.652344 160.332031 96.894531 160.582031 96.976562 C 160.828125 97.058594 161.570312 98.34375 162.226562 99.832031 C 162.886719 101.320312 163.578125 102.585938 163.769531 102.648438 C 163.957031 102.707031 164.679688 101.390625 165.371094 99.722656 C 166.0625 98.054688 166.691406 96.546875 166.769531 96.371094 C 166.84375 96.199219 166.421875 96.058594 165.824219 96.058594 C 165.230469 96.058594 164.742188 96.246094 164.742188 96.476562 C 164.742188 96.707031 164.921875 96.894531 165.140625 96.894531 C 165.359375 96.894531 165.226562 97.746094 164.839844 98.789062 L 164.136719 100.683594 L 163.371094 99.1875 C 162.945312 98.355469 162.71875 97.328125 162.863281 96.875 C 163.085938 96.167969 162.917969 96.058594 161.625 96.058594 C 160.804688 96.058594 160.132812 96.230469 160.132812 96.441406 M 168.933594 96.476562 C 168.933594 96.707031 169.121094 96.894531 169.355469 96.894531 C 169.964844 96.894531 169.871094 101.660156 169.25 102.289062 C 168.828125 102.707031 169.265625 102.789062 171.449219 102.6875 C 174.003906 102.566406 174.179688 102.492188 174.292969 101.511719 C 174.398438 100.546875 174.359375 100.523438 173.824219 101.195312 C 173.503906 101.597656 172.746094 101.929688 172.136719 101.929688 C 171.234375 101.929688 171.03125 101.734375 171.03125 100.882812 C 171.03125 99.734375 172.140625 99.433594 173.042969 100.335938 C 173.433594 100.726562 173.546875 100.539062 173.546875 99.496094 C 173.546875 98.757812 173.355469 98.15625 173.125 98.15625 C 172.894531 98.15625 172.707031 98.34375 172.707031 98.574219 C 172.707031 98.804688 172.328125 98.992188 171.867188 98.992188 C 171.253906 98.992188 171.03125 98.714844 171.03125 97.945312 C 171.03125 97.128906 171.246094 96.894531 171.996094 96.894531 C 172.523438 96.894531 173.183594 97.121094 173.460938 97.398438 C 173.851562 97.789062 173.964844 97.699219 173.964844 96.980469 C 173.964844 96.132812 173.761719 96.058594 171.449219 96.058594 C 170.050781 96.058594 168.933594 96.242188 168.933594 96.476562 M 176.480469 96.476562 C 176.480469 96.707031 176.667969 96.894531 176.898438 96.894531 C 177.496094 96.894531 177.421875 101.660156 176.816406 102.265625 C 176.425781 102.65625 176.667969 102.769531 177.914062 102.769531 C 179.265625 102.769531 179.4375 102.671875 179.015625 102.164062 C 178.738281 101.828125 178.574219 101.132812 178.648438 100.613281 C 178.773438 99.75 178.875 99.800781 179.832031 101.21875 C 180.515625 102.226562 181.207031 102.765625 181.824219 102.765625 C 183.046875 102.769531 183.023438 102.667969 181.433594 101.078125 C 180.25 99.894531 180.179688 99.695312 180.804688 99.347656 C 181.765625 98.808594 181.703125 97.027344 180.699219 96.492188 C 179.660156 95.933594 176.480469 95.925781 176.480469 96.476562 M 185.285156 96.6875 C 184.519531 97.605469 185.113281 99.09375 186.617188 100.042969 C 187.351562 100.503906 187.925781 101.070312 187.894531 101.300781 C 187.785156 102.15625 186.375 101.984375 185.640625 101.03125 L 184.882812 100.042969 L 184.871094 101.40625 C 184.863281 102.742188 184.898438 102.769531 186.757812 102.769531 C 188.367188 102.769531 188.726562 102.613281 189.125 101.730469 C 189.679688 100.519531 189.191406 99.722656 187.304688 98.746094 C 185.917969 98.027344 185.730469 96.894531 187 96.894531 C 187.523438 96.894531 187.964844 97.234375 188.09375 97.734375 C 188.421875 98.980469 189.054688 98.75 189.054688 97.382812 C 189.054688 96.292969 188.921875 96.1875 187.425781 96.132812 C 186.433594 96.09375 185.597656 96.308594 185.285156 96.6875 M 191.570312 96.476562 C 191.570312 96.707031 191.757812 96.894531 191.988281 96.894531 C 192.585938 96.894531 192.511719 101.660156 191.90625 102.265625 C 191.515625 102.65625 191.765625 102.769531 193.039062 102.769531 C 194.308594 102.769531 194.5625 102.65625 194.167969 102.265625 C 193.5625 101.660156 193.488281 96.894531 194.085938 96.894531 C 194.316406 96.894531 194.503906 96.707031 194.503906 96.476562 C 194.503906 96.246094 193.84375 96.058594 193.039062 96.058594 C 192.230469 96.058594 191.570312 96.246094 191.570312 96.476562 M 196.613281 97.210938 C 196.625 98.195312 196.6875 98.257812 197.054688 97.628906 C 197.289062 97.226562 197.753906 96.894531 198.089844 96.894531 C 198.859375 96.894531 198.949219 101.507812 198.195312 102.265625 C 197.804688 102.65625 198.054688 102.769531 199.324219 102.769531 C 200.597656 102.769531 200.847656 102.65625 200.457031 102.265625 C 199.804688 101.609375 199.78125 96.894531 200.433594 96.894531 C 200.695312 96.894531 201.160156 97.226562 201.46875 97.628906 C 201.972656 98.296875 202.023438 98.257812 202.035156 97.210938 C 202.050781 96.070312 202.023438 96.058594 199.324219 96.058594 C 196.628906 96.058594 196.601562 96.070312 196.613281 97.210938 M 204.144531 96.476562 C 204.144531 96.707031 204.335938 96.894531 204.566406 96.894531 C 205.160156 96.894531 205.085938 101.660156 204.480469 102.265625 C 204.089844 102.65625 204.34375 102.769531 205.613281 102.769531 C 206.886719 102.769531 207.136719 102.65625 206.746094 102.265625 C 206.140625 101.660156 206.066406 96.894531 206.660156 96.894531 C 206.890625 96.894531 207.082031 96.707031 207.082031 96.476562 C 207.082031 96.246094 206.421875 96.058594 205.613281 96.058594 C 204.808594 96.058594 204.144531 96.246094 204.144531 96.476562 M 209.519531 98.785156 C 209.632812 100.574219 209.515625 101.730469 209.175781 102.140625 C 208.722656 102.6875 209.011719 102.769531 211.382812 102.769531 C 213.84375 102.769531 214.132812 102.679688 214.351562 101.84375 C 214.660156 100.65625 214.269531 100.246094 213.734375 101.199219 C 213.511719 101.601562 212.863281 101.929688 212.300781 101.929688 C 211.484375 101.929688 211.273438 101.714844 211.273438 100.882812 C 211.273438 100.113281 211.496094 99.832031 212.109375 99.832031 C 212.570312 99.832031 212.949219 100.050781 212.949219 100.320312 C 212.949219 100.589844 213.078125 100.683594 213.230469 100.527344 C 213.632812 100.125 213.671875 98.15625 213.277344 98.15625 C 213.097656 98.15625 212.949219 98.34375 212.949219 98.574219 C 212.949219 98.804688 212.570312 98.992188 212.109375 98.992188 C 211.496094 98.992188 211.273438 98.714844 211.273438 97.945312 C 211.273438 97.117188 211.484375 96.894531 212.285156 96.894531 C 212.84375 96.894531 213.382812 97.132812 213.484375 97.421875 C 213.589844 97.707031 213.816406 97.8125 213.992188 97.648438 C 214.167969 97.484375 214.199219 97.058594 214.0625 96.703125 C 213.882812 96.234375 213.207031 96.058594 211.582031 96.058594 L 209.347656 96.058594 L 209.519531 98.785156 M 217.359375 96.738281 C 216.378906 97.71875 216.726562 98.640625 218.507812 99.796875 C 220.339844 100.980469 220.550781 101.929688 218.988281 101.929688 C 218.257812 101.929688 217.832031 101.65625 217.683594 101.09375 C 217.394531 99.992188 216.722656 100.445312 216.722656 101.746094 C 216.722656 102.675781 216.890625 102.769531 218.558594 102.769531 C 221.757812 102.769531 222.3125 100.355469 219.464844 98.824219 C 218.648438 98.382812 217.980469 97.769531 217.980469 97.460938 C 217.980469 96.554688 219.496094 96.8125 220.210938 97.839844 C 220.871094 98.78125 220.871094 98.78125 220.890625 97.421875 C 220.914062 96.144531 220.824219 96.058594 219.476562 96.058594 C 218.6875 96.058594 217.734375 96.363281 217.359375 96.738281 M 127.855469 99.414062 C 127.855469 101.625 127.953125 101.929688 128.667969 101.929688 C 129.585938 101.929688 130.789062 100.449219 130.789062 99.320312 C 130.789062 98.410156 129.347656 96.894531 128.480469 96.894531 C 127.992188 96.894531 127.855469 97.457031 127.855469 99.414062 M 178.574219 97.945312 C 178.574219 98.578125 178.816406 98.992188 179.179688 98.992188 C 179.972656 98.992188 180.316406 98.394531 180 97.5625 C 179.589844 96.5 178.574219 96.773438 178.574219 97.945312 M 39.421875 98.34375 C 38.421875 99.546875 39.800781 101.394531 41.273438 100.828125 C 42.800781 100.242188 42.304688 97.734375 40.660156 97.734375 C 40.257812 97.734375 39.699219 98.007812 39.421875 98.34375 M 57.726562 97.996094 C 57.140625 98.582031 57.441406 100.230469 58.210938 100.640625 C 59.3125 101.230469 60.484375 100.292969 60.296875 98.96875 C 60.195312 98.234375 59.855469 97.910156 59.089844 97.820312 C 58.503906 97.753906 57.890625 97.832031 57.726562 97.996094 M 66.652344 98.15625 C 66.652344 98.386719 67.027344 98.574219 67.488281 98.574219 C 67.949219 98.574219 68.328125 98.386719 68.328125 98.15625 C 68.328125 97.921875 67.949219 97.734375 67.488281 97.734375 C 67.027344 97.734375 66.652344 97.921875 66.652344 98.15625 "/>
<path style=" stroke:none;fill-rule:evenodd;fill:rgb(73.725492%,74.509805%,74.901962%);fill-opacity:1;" d="M 183.0625 25.851562 C 182.898438 26.015625 182.769531 27.90625 182.769531 30.0625 L 182.769531 33.976562 L 165.160156 33.976562 L 165.160156 39.847656 L 169.355469 39.847656 L 169.355469 69.632812 L 177.617188 69.632812 L 177.410156 54.738281 L 177.199219 39.847656 L 182.71875 39.847656 L 182.847656 51.910156 C 182.976562 63.886719 182.984375 63.980469 184.023438 65.828125 C 184.726562 67.070312 185.683594 68.007812 186.921875 68.65625 C 188.585938 69.535156 189.320312 69.632812 194.359375 69.632812 L 199.953125 69.632812 L 199.953125 62.53125 L 196.078125 62.410156 L 192.199219 62.289062 L 192.089844 51.070312 L 191.976562 39.847656 L 199.953125 39.847656 L 199.953125 33.976562 L 192.019531 33.976562 L 191.898438 29.886719 L 191.78125 25.796875 L 187.566406 25.679688 C 185.25 25.613281 183.222656 25.691406 183.0625 25.851562 "/>
<path style=" stroke:none;fill-rule:evenodd;fill:rgb(73.725492%,74.509805%,74.901962%);fill-opacity:1;" d="M 169.355469 29.527344 L 169.355469 33.042969 L 173.019531 32.824219 C 175.039062 32.707031 176.757812 32.546875 176.84375 32.472656 C 176.929688 32.398438 176.867188 30.914062 176.703125 29.171875 L 176.40625 26.007812 L 169.355469 26.007812 L 169.355469 29.527344 "/>
<path style=" stroke:none;fill-rule:evenodd;fill:rgb(79.215688%,0%,7.058824%);fill-opacity:1;" d="M 202.058594 34.292969 C 202.0625 38.15625 202.226562 41.574219 202.421875 41.886719 C 202.710938 42.339844 204.917969 41.757812 213.507812 38.949219 C 219.410156 37.023438 224.1875 35.273438 224.125 35.066406 C 224.015625 34.683594 203.539062 27.273438 202.574219 27.269531 C 202.175781 27.265625 202.050781 28.945312 202.058594 34.292969 "/>
<path style=" stroke:none;fill-rule:evenodd;fill:rgb(79.215688%,0.784314%,7.843138%);fill-opacity:1;" d="M 26.269531 88.367188 C 26.117188 88.519531 25.988281 89.085938 25.988281 89.625 L 25.988281 90.605469 L 224.6875 90.605469 L 224.6875 88.085938 L 125.617188 88.085938 C 71.128906 88.085938 26.421875 88.214844 26.269531 88.367188 "/>
</g>
</svg>
