<svg xmlns="http://www.w3.org/2000/svg"
    xmlnsxlink="http://www.w3.org/1999/xlink" version="1.1" viewBox="0 0.02 249.53 41.37">
    <g id="surface1">
        <path fill="#1C2750" d="M 18.839844 12.617188 L 29.480469 12.617188 L 17.53125 23.371094 L 32.441406 40.476562 L 21.628906 40.476562 L 11.609375 28.21875 L 8.820312 30.390625 L 8.992188 40.421875 L 0 40.421875 L 0 0.0234375 L 8.992188 0.0234375 L 8.992188 16.851562 C 8.992188 19.46875 7.570312 22.421875 6.488281 24.761719 L 7.910156 25.433594 C 8.992188 23.035156 10.300781 20.027344 12.292969 18.300781 Z M 18.839844 12.617188 "></path>
        <path fill="#1C2750" d="M 103.917969 11.722656 C 109.609375 11.722656 114.050781 14.957031 114.050781 21.308594 L 114.050781 40.421875 L 105.058594 40.421875 L 105.058594 27.660156 C 105.058594 22.8125 103.40625 20.695312 99.878906 20.695312 C 96.007812 20.695312 92.820312 22.867188 92.820312 27.660156 L 92.820312 40.421875 L 83.828125 40.421875 L 83.828125 12.558594 L 92.820312 12.558594 L 92.820312 12.78125 C 92.820312 15.457031 91.398438 18.578125 90.429688 21.085938 L 91.910156 21.640625 C 92.878906 19.136719 93.675781 15.511719 95.835938 13.839844 C 98 12.167969 100.503906 11.722656 103.917969 11.722656 Z M 103.917969 11.722656 "></path>
        <path fill="#1C2750" d="M 117.941406 26.324219 C 117.941406 18.019531 125.339844 11.722656 135.8125 11.722656 C 146.570312 11.722656 153.230469 18.632812 153.171875 26.433594 L 153.171875 28.886719 L 129.15625 28.832031 C 129.15625 31.28125 131.546875 34.070312 136.441406 34.070312 C 139.570312 34.070312 141.503906 33.234375 142.074219 32.453125 L 152.546875 32.453125 C 151.691406 35.351562 147.082031 41.367188 137.292969 41.367188 C 124.773438 41.3125 117.941406 34.625 117.941406 26.324219 Z M 142.472656 23.703125 C 142.472656 20.472656 140.027344 18.242188 136.042969 18.242188 C 132.058594 18.242188 129.15625 20.75 129.15625 23.703125 Z M 142.472656 23.703125 "></path>
        <path fill="#1C2750" d="M 177.019531 12.617188 L 187.664062 12.617188 L 175.710938 23.371094 L 190.621094 40.476562 L 179.808594 40.476562 L 169.789062 28.21875 L 167.003906 30.390625 L 167.171875 40.421875 L 158.179688 40.421875 L 158.179688 0.0234375 L 167.171875 0.0234375 L 167.171875 16.851562 C 167.171875 19.46875 165.75 22.421875 164.667969 24.761719 L 166.09375 25.433594 C 167.230469 23.035156 168.480469 20.027344 170.476562 18.300781 Z M 177.019531 12.617188 "></path>
        <path fill="#1C2750" d="M 195.230469 19.914062 L 189.539062 19.914062 L 189.539062 12.503906 L 195.230469 12.503906 L 195.230469 0.800781 L 204.167969 0.800781 L 204.167969 12.503906 L 211.566406 12.503906 L 211.566406 19.914062 L 204.167969 19.914062 L 204.167969 29.332031 C 204.167969 31.5625 205.25 32.285156 207.925781 32.285156 L 211.335938 32.285156 L 211.335938 40.421875 L 202.859375 40.421875 C 196.539062 40.421875 195.289062 34.011719 195.289062 29.332031 Z M 195.230469 19.914062 "></path>
        <path fill="#1C2750" d="M 232.28125 11.722656 C 242.867188 11.722656 249.527344 17.742188 249.527344 26.546875 C 249.527344 35.351562 242.867188 41.3125 232.28125 41.3125 C 221.695312 41.3125 214.96875 35.964844 214.96875 26.546875 C 214.96875 17.128906 221.640625 11.722656 232.28125 11.722656 Z M 232.28125 32.789062 C 238.085938 32.789062 239.910156 30.058594 239.910156 26.546875 C 239.910156 23.035156 238.085938 20.195312 232.28125 20.195312 C 226.476562 20.195312 224.710938 23.035156 224.710938 26.546875 C 224.710938 30.058594 226.421875 32.789062 232.226562 32.789062 Z M 232.28125 32.789062 "></path>
        <path fill="#1C2750" d="M 59.253906 11.902344 C 75.644531 12.058594 79.578125 17.90625 79.578125 26.496094 C 79.578125 35.085938 75.644531 40.992188 59.253906 41.144531 C 49.074219 41.242188 27.777344 37.90625 27.777344 26.496094 C 27.777344 15.097656 49.097656 11.804688 59.253906 11.902344 Z M 59.253906 33.710938 C 69.050781 33.710938 70.863281 30.460938 70.863281 26.496094 C 70.863281 22.53125 69.050781 19.339844 59.253906 19.339844 C 49.457031 19.339844 44.675781 22.53125 44.675781 26.496094 C 44.675781 30.460938 49.355469 33.710938 59.253906 33.710938 Z M 59.253906 33.710938 "></path>
    </g>
</svg>