<svg xmlns="http://www.w3.org/2000/svg" width="250px" height="250px" viewBox="0 0 250 250" version="1.1">
  <path fill="#FF7300" d="M 42.542969 115.777344 C 44.792969 110.785156 48.90625 109.066406 53.753906 108.660156 C 58.550781 108.261719 63.15625 108.773438 67.21875 111.804688 C 68.3125 112.625 69.121094 113.523438 69.636719 114.726562 C 70.246094 116.152344 69.964844 117.542969 68.980469 118.625 C 68.105469 119.589844 66.925781 119.539062 65.644531 119.136719 C 62.8125 118.25 60.664062 115.988281 57.609375 115.480469 C 54.210938 114.914062 50.636719 116.328125 49.101562 119.269531 C 48.042969 121.300781 49.773438 124.203125 52.714844 125.195312 C 55.339844 126.082031 58.007812 126.859375 60.644531 127.71875 C 62.773438 128.414062 64.699219 129.429688 66.453125 130.902344 C 71.558594 135.199219 71.796875 142.511719 66.859375 147.03125 C 59.832031 153.460938 48.207031 153.34375 41.519531 146.773438 C 40.347656 145.617188 40.097656 142.519531 41.191406 141.386719 C 42.628906 139.890625 44.167969 140.296875 45.699219 141.324219 C 49.390625 143.800781 53.199219 145.789062 57.890625 144.425781 C 59.09375 144.078125 60.085938 143.445312 60.972656 142.613281 C 63.496094 140.238281 63.160156 137.929688 60.121094 136.132812 C 57.277344 134.453125 54.140625 133.714844 50.976562 132.980469 C 42.535156 131.03125 38.980469 123.917969 42.542969 115.777344 Z M 42.542969 115.777344 " />
  <path fill="#FF7300" d="M 150.754 143.055 C 144.52 142.809 140.582 139.504 139.332 133.488 C 138.477 129.359 138.539 125.18 139.625 121.113 C 140.758 116.852 144.223 114.637 148.086 113.953 C 157.246 112.328 166.012 115.297 166.125 127.539 C 166.172 132.523 165.328 136.922 161.434 140.332 C 160.438 141.203 160.57 141.984 161.391 142.934 C 162.051 143.695 162.605 144.586 163.035 145.5 C 163.648 146.805 164.707 148.492 162.809 149.352 C 161.195 150.078 159.156 150.445 157.816 148.461 C 157.297 147.691 156.785 146.91 156.371 146.082 C 155.258 143.844 153.559 142.707 150.754 143.055 M 155.926 119.535 C 151.703 117.414 148.469 118.379 146.141 122.41 C 144.348 125.512 144.504 128.84 145.262 132.098 C 146.172 136.012 149.457 138.316 152.895 137.871 C 157.031 137.336 159.582 134.418 159.605 130.184 C 159.613 128.887 159.516 127.582 159.621 126.293 C 159.852 123.402 158.547 121.336 155.926 119.535 Z M 155.926 119.535" />
  <path fill="#FF7300" d="M 94.085938 140.253906 C 92.84375 144.273438 91.875 148.144531 89.523438 151.476562 C 87.75 153.988281 86.558594 154.09375 84.546875 151.710938 C 81.695312 148.328125 81.355469 144.511719 82.890625 140.535156 C 85.648438 133.390625 85.722656 126.128906 83.066406 119.101562 C 81.199219 114.15625 82.285156 110.285156 85.367188 106.527344 C 86.46875 105.183594 87.457031 104.859375 88.59375 106.648438 C 93.976562 115.121094 96.648438 124.199219 95.195312 134.316406 C 94.921875 136.242188 94.730469 138.167969 94.085938 140.253906 Z M 94.085938 140.253906 " />
  <path fill="#FF7300" d="M 18.882812 147.324219 C 16.886719 143.277344 16.199219 139.089844 15.421875 134.914062 C 14.175781 128.25 15.660156 121.824219 17.332031 115.507812 C 18.320312 111.773438 20.492188 108.433594 23.066406 105.496094 C 27.6875 107.1875 29.929688 113.226562 27.886719 118.363281 C 26.441406 121.996094 25.230469 125.664062 25.292969 129.648438 C 25.347656 132.933594 26.003906 136.082031 27.214844 139.109375 C 29.570312 144.988281 28.925781 148.871094 25.203125 152.359375 C 23.734375 153.734375 22.691406 153.710938 21.671875 152.054688 C 20.746094 150.558594 19.875 149.027344 18.882812 147.324219 Z M 18.882812 147.324219 " />
  <path fill="#FF7300" d="M 39.34375 166.59375 C 36.371094 166.066406 34.351562 164.183594 32.082031 162.78125 C 30.800781 161.988281 30.957031 161.054688 31.875 160.023438 C 34.574219 157.011719 40.085938 155.699219 43.945312 157.195312 C 51.132812 159.980469 58.382812 159.996094 65.613281 157.484375 C 69.757812 156.042969 73.578125 156.269531 77.242188 158.800781 C 79.375 160.273438 79.53125 162.121094 77.378906 163.636719 C 73.203125 166.585938 68.375 168.089844 63.480469 169.082031 C 55.320312 170.734375 47.265625 170.082031 39.34375 166.59375 Z M 39.34375 166.59375 " />
  <path fill="#FF7300" d="M 42.164062 102.820312 C 37.324219 103.410156 33.882812 101.488281 30.910156 97.703125 C 33.730469 95.140625 36.847656 93.136719 40.3125 91.996094 C 50.269531 88.714844 60.351562 88.78125 70.304688 91.996094 C 72.894531 92.832031 75.234375 94.503906 77.617188 95.914062 C 79.117188 96.800781 79.164062 98.023438 78.085938 99.414062 C 75.707031 102.476562 70.960938 104.171875 67.304688 102.484375 C 58.875 98.589844 50.65625 99.023438 42.164062 102.820312 Z M 42.164062 102.820312 " />
  <path fill="#FF7300" d="M 212.555 126.121 C 212.559 123.055 212.578 120.266 212.559 117.477 C 212.547 115.973 212.988 114.582 214.313 113.922 C 215.684 113.238 216.973 113.871 218.07 114.934 C 218.93 115.766 219.801 116.523 220.523 117.527 C 223.84 122.129 227.293 126.633 230.973 131.535 C 231.906 128.922 231.434 126.73 231.512 124.602 C 231.598 122.094 231.512 119.582 231.555 117.07 C 231.59 115.176 232.355 113.734 234.465 113.746 C 236.559 113.758 236.953 115.25 236.945 117.023 C 236.922 124.645 236.945 132.27 236.93 139.891 C 236.926 140.973 237.195 142.293 235.813 142.754 C 234.434 143.215 232.973 143.184 231.953 141.957 C 230.297 139.965 228.656 137.949 227.172 135.824 C 224.688 132.277 221.531 129.273 219.109 125.066 C 218.156 127.66 218.609 129.762 218.539 131.805 C 218.453 134.313 218.535 136.824 218.512 139.336 C 218.496 141.258 218.078 142.863 215.668 142.973 C 213.164 143.09 212.691 141.277 212.629 139.504 C 212.477 135.141 212.563 130.77 212.555 126.121 Z M 212.555 126.121" />
  <path fill="#FF7300" d="M 183.176 143.051 C 174.477 144.137 169.555 136.336 169.609 129.445 C 169.625 127.426 169.332 125.395 169.957 123.375 C 172.66 114.602 178.25 112.363 187.348 114.125 C 194.293 115.473 198.543 123.188 197.066 130.211 C 196.668 132.098 196.434 133.992 195.637 135.82 C 193.281 141.234 189.121 143.371 183.176 143.051 M 186.73 119.371 C 183.199 117.641 179.602 118.488 177.414 121.563 C 174.926 125.063 175.039 128.871 176.285 132.703 C 177.273 135.746 180.965 138.324 183.66 138.141 C 186.316 137.957 189.973 134.91 190.645 132.078 C 191.781 127.293 191.355 122.883 186.73 119.371 Z M 186.73 119.371" />
  <path fill="#FF7300" d="M 114.746 141.082 C 114.125 140.629 113.648 140.328 113.254 139.949 C 112.301 139.023 111.961 137.938 112.543 136.66 C 113.195 135.227 114.461 135.391 115.66 135.504 C 118.098 135.73 119.891 137.813 122.402 137.879 C 123.133 137.898 123.918 138.281 124.57 138.105 C 126.508 137.582 128.961 137.32 129.262 134.844 C 129.57 132.324 126.934 132.184 125.418 131.547 C 123.148 130.59 120.602 130.301 118.207 129.613 C 115.164 128.742 113.379 126.645 113.234 123.988 C 112.949 118.707 113.992 116.625 117.602 115.066 C 122.57 112.93 127.488 113.043 132.398 115.258 C 133.664 115.828 134.559 116.676 134.773 118.102 C 135.176 120.738 133.875 121.805 131.367 120.855 C 128.895 119.918 126.762 118.047 123.801 118.469 C 121.719 118.762 119.891 119.25 119.543 121.641 C 119.191 124.027 121.215 124.531 122.797 125.094 C 125.145 125.93 127.609 126.371 129.93 127.355 C 134.496 129.289 135.613 130.789 135.371 135.176 C 135.168 138.809 132.84 141.988 129.035 142.645 C 124.281 143.465 119.418 143.695 114.746 141.082 Z M 114.746 141.082" />
  <path fill="#FF7300" d="M 201.395 130.586 C 201.395 125.852 201.426 121.398 201.387 116.945 C 201.371 114.973 202.043 113.738 204.215 113.664 C 206.359 113.594 207.746 114.676 207.777 116.699 C 207.898 124.488 207.871 132.281 207.789 140.074 C 207.766 142.191 206.484 143.168 204.281 143.012 C 202.18 142.859 201.348 141.805 201.387 139.77 C 201.441 136.801 201.395 133.832 201.395 130.586 Z M 201.395 130.586" />
</svg>