<?xml version="1.0" encoding="UTF-8"?> <svg xmlns="http://www.w3.org/2000/svg" width="168" height="54" viewBox="0 0 168 54" fill="none"><g clip-path="url(#clip0_607_15190)"><path d="M13.5505 27.0001C13.5505 27.4847 13.9653 27.9001 14.4666 27.9001C14.9678 27.9001 15.3653 27.4847 15.3653 27.0001C15.3653 24.9924 13.7406 23.3655 11.753 23.3655C9.76532 23.3655 8.14062 24.9924 8.14062 27.0001C8.14062 27.4847 8.53816 27.9001 9.03939 27.9001C9.54063 27.9001 9.93816 27.4847 9.93816 27.0001C9.93816 25.9962 10.7505 25.1828 11.753 25.1828C12.7554 25.1828 13.5505 25.9962 13.5505 27.0001Z" fill="#11A69D"></path><path d="M33.4443 27.0001C33.4443 27.4847 33.8419 27.9001 34.3431 27.9001C34.8443 27.9001 35.2592 27.4847 35.2592 27.0001C35.2592 25.9962 36.0715 25.1828 37.0567 25.1828C38.0591 25.1828 38.8715 25.9962 38.8715 27.0001C38.8715 27.4847 39.269 27.9001 39.7703 27.9001C40.2715 27.9001 40.669 27.4847 40.669 27.0001C40.669 24.9924 39.0616 23.3655 37.0567 23.3655C35.069 23.3655 33.4443 24.9924 33.4443 27.0001Z" fill="#11A69D"></path><path fill-rule="evenodd" clip-rule="evenodd" d="M74.1136 24.2136C74.1136 37.679 63.1728 48.652 49.7086 48.652C46.7877 48.652 43.9877 48.1328 41.3778 47.1809C36.9877 51.4386 30.9901 54.0694 24.4049 54.0694C10.9407 54.0694 0 43.1136 0 29.6309C0 16.1655 10.9407 5.19243 24.4049 5.19243C27.3259 5.19243 30.1432 5.71166 32.7358 6.66358C37.1432 2.40589 43.1235 -0.242188 49.7086 -0.242188C63.1728 -0.242188 74.1136 10.7309 74.1136 24.2136ZM36.2272 15.7155C36.763 14.3655 37.558 13.1194 38.5605 12.0117C36.9358 10.6963 35.1383 9.60589 33.2025 8.79243C29.4346 12.8251 27.1185 18.2597 27.1185 24.2136C27.1185 30.6693 29.8494 36.502 34.2049 40.6386C35.0691 39.6693 35.7605 38.5963 36.2272 37.4367C36.4173 36.9867 36.9358 36.7617 37.4025 36.952C37.8691 37.1251 38.0938 37.6617 37.9037 38.129C37.3506 39.479 36.5556 40.7251 35.5704 41.8328C37.1951 43.1482 38.9926 44.2386 40.9284 45.052C44.6963 41.002 47.0123 35.5847 47.0123 29.6309C47.0123 23.1751 44.2815 17.3424 39.9259 13.2059C39.0617 14.1751 38.3704 15.2482 37.9037 16.3905C37.7136 16.8578 37.1778 17.0828 36.7284 16.8924C36.2617 16.7194 36.037 16.1828 36.2272 15.7155ZM39.5457 46.4194C37.6444 45.5367 35.8815 44.429 34.2741 43.1136C31.6123 45.4674 28.0173 46.9213 24.4049 46.9213C18.6321 46.9213 12.963 43.2174 10.9062 38.129C10.7333 37.6617 10.958 37.1251 11.4074 36.952C11.8741 36.7617 12.4099 36.9867 12.5827 37.4367C14.3457 41.8155 19.4272 45.104 24.4049 45.104C27.4642 45.104 30.558 43.8751 32.8914 41.8847C28.2247 37.4367 25.3037 31.154 25.3037 24.2136C25.3037 18.052 27.6025 12.4097 31.3704 8.11743C29.1753 7.39051 26.842 7.00974 24.4049 7.00974C11.9432 7.00974 1.81481 17.152 1.81481 29.6309C1.81481 42.1097 11.9432 52.2694 24.4049 52.2694C30.2296 52.2694 35.5358 50.054 39.5457 46.4194ZM72.316 24.2136C72.316 11.7347 62.1704 1.57512 49.7086 1.57512C43.9012 1.57512 38.5778 3.79051 34.5679 7.42512C36.4691 8.30781 38.2494 9.41551 39.8395 10.7309C42.5185 8.37704 46.0963 6.9232 49.7086 6.9232C55.4815 6.9232 61.1506 10.627 63.2074 15.7155C63.3975 16.1828 63.1728 16.7194 62.7062 16.8924C62.5909 16.9386 62.4815 16.9617 62.3778 16.9617C62.0148 16.9617 61.6691 16.754 61.5309 16.3905C59.7679 12.029 54.6864 8.7232 49.7086 8.7232C46.6667 8.7232 43.5556 9.96935 41.2222 11.9424C45.8889 16.4078 48.8099 22.6905 48.8099 29.6309C48.8099 35.7924 46.5284 41.4347 42.7432 45.727C44.9383 46.4367 47.2889 46.8347 49.7086 46.8347C62.1704 46.8347 72.316 36.6751 72.316 24.2136Z" fill="#11A69D"></path><path d="M47.9111 16.9618C47.9111 17.4637 48.3087 17.8618 48.8099 17.8618H52.284L50.6247 29.5098C50.5556 30.0118 50.9013 30.4618 51.4025 30.531C51.4371 30.5425 51.4774 30.5483 51.5235 30.5483C51.9729 30.5483 52.3531 30.2195 52.4222 29.7695L54.3753 16.0618H48.8099C48.3087 16.0618 47.9111 16.4598 47.9111 16.9618Z" fill="#11A69D"></path><path d="M26.2201 36.8827C26.2201 36.3808 25.8052 35.9654 25.304 35.9654H21.8299L23.4892 24.3347C23.5583 23.8327 23.2126 23.3827 22.7287 23.3135C22.2275 23.2443 21.7781 23.5904 21.7089 24.075L19.7559 37.7827H25.304C25.8052 37.7827 26.2201 37.3847 26.2201 36.8827Z" fill="#11A69D"></path><path d="M65.074 25.9443C64.59 25.9443 64.1752 26.3424 64.1752 26.8443C64.1752 27.8482 63.3629 28.6616 62.3777 28.6616C61.3752 28.6616 60.5629 27.8482 60.5629 26.8443C60.5629 26.3424 60.1653 25.9443 59.6641 25.9443C59.1629 25.9443 58.748 26.3424 58.748 26.8443C58.748 28.852 60.3727 30.479 62.3777 30.479C64.3653 30.479 65.99 28.852 65.99 26.8443C65.99 26.3424 65.5752 25.9443 65.074 25.9443Z" fill="#11A69D"></path><path d="M89.5829 19.4154C89.5829 20.3269 89.8594 21.0538 90.4125 21.5962C90.9541 22.1385 91.6858 22.4096 92.6076 22.4096C93.3796 22.4096 94.0133 22.2019 94.5088 21.7865C95.0043 21.3827 95.252 20.8288 95.252 20.125C95.252 19.7212 95.1771 19.3865 95.0273 19.1212C94.866 18.8558 94.6644 18.6308 94.4224 18.4462C94.1689 18.2615 93.8924 18.1173 93.5928 18.0135C93.3047 17.8981 93.0109 17.7942 92.7113 17.7019C92.1121 17.5173 91.5475 17.3212 91.0175 17.1135C90.4874 16.9173 90.0207 16.6692 89.6175 16.3692C89.2142 16.0692 88.903 15.6942 88.6841 15.2442C88.4537 14.8058 88.3384 14.2462 88.3384 13.5654C88.3384 13.0346 88.4422 12.5558 88.6496 12.1288C88.857 11.6904 89.145 11.3096 89.5138 10.9865C89.8825 10.675 90.3203 10.4327 90.8273 10.2596C91.3343 10.0865 91.8874 10 92.4866 10C93.0973 10 93.6561 10.0981 94.1631 10.2942C94.6701 10.4904 95.108 10.7673 95.4767 11.125C95.8454 11.4827 96.1393 11.9154 96.3582 12.4231C96.5656 12.9192 96.6693 13.4731 96.6693 14.0846H94.9409C94.9294 13.3231 94.7105 12.7115 94.2841 12.25C93.8578 11.8 93.2701 11.575 92.5212 11.575C91.7837 11.575 91.1903 11.7481 90.7409 12.0942C90.2915 12.4519 90.0668 12.9423 90.0668 13.5654C90.0668 13.9346 90.136 14.2462 90.2742 14.5C90.4125 14.7423 90.5969 14.95 90.8273 15.1231C91.0578 15.2962 91.3228 15.4404 91.6224 15.5558C91.922 15.6827 92.2273 15.7923 92.5384 15.8846C93.0454 16.0462 93.564 16.2308 94.094 16.4385C94.624 16.6346 95.1022 16.8885 95.5286 17.2C95.9664 17.5 96.3179 17.8692 96.5829 18.3077C96.8479 18.7462 96.9804 19.2885 96.9804 19.9346C96.9804 20.5923 96.8652 21.1692 96.6347 21.6654C96.3928 22.1731 96.0701 22.5942 95.6668 22.9288C95.2635 23.275 94.7854 23.5346 94.2323 23.7077C93.6907 23.8808 93.1031 23.9673 92.4693 23.9673C91.824 23.9673 91.2191 23.8635 90.6545 23.6558C90.1014 23.4481 89.6175 23.1481 89.2026 22.7558C88.7878 22.3635 88.4594 21.8846 88.2175 21.3192C87.9755 20.7538 87.8545 20.1192 87.8545 19.4154H89.5829Z" fill="#E91E4D"></path><path d="M103.791 23.6558C103.618 23.6904 103.399 23.7192 103.134 23.7423C102.857 23.7654 102.581 23.7769 102.304 23.7769C102.028 23.7769 101.734 23.7538 101.423 23.7077C101.1 23.65 100.806 23.5231 100.541 23.3269C100.265 23.1308 100.034 22.8308 99.8498 22.4269C99.6654 22.0115 99.5732 21.4519 99.5732 20.7481V16.3865H97.9658V15.0019H99.5732V12.0769H101.232V15.0019H103.479V16.3865H101.232V20.3673C101.232 20.7827 101.267 21.1173 101.336 21.3711C101.405 21.6134 101.503 21.8038 101.63 21.9423C101.757 22.0692 101.907 22.15 102.079 22.1846C102.252 22.2308 102.448 22.2538 102.667 22.2538C102.84 22.2538 103.036 22.2538 103.255 22.2538C103.485 22.2538 103.664 22.2308 103.791 22.1846V23.6558Z" fill="#E91E4D"></path><path fill-rule="evenodd" clip-rule="evenodd" d="M113.866 15.0019V23.6557H112.224V22.1499C111.948 22.6922 111.533 23.1134 110.98 23.4134C110.427 23.7134 109.834 23.8634 109.2 23.8634C108.531 23.8634 107.927 23.748 107.385 23.5172C106.832 23.2749 106.365 22.9403 105.985 22.5134C105.593 22.098 105.294 21.6134 105.086 21.0595C104.867 20.5172 104.758 19.9403 104.758 19.3288C104.758 18.7172 104.867 18.1345 105.086 17.5807C105.294 17.0269 105.593 16.5422 105.985 16.1269C106.365 15.7115 106.832 15.3826 107.385 15.1403C107.927 14.898 108.531 14.7769 109.2 14.7769C109.834 14.7769 110.427 14.9269 110.98 15.2269C111.533 15.5384 111.948 15.9595 112.224 16.4903V15.0019H113.866ZM109.286 22.3749C109.736 22.3865 110.139 22.3057 110.496 22.1326C110.865 21.9711 111.176 21.7519 111.429 21.4749C111.683 21.198 111.879 20.8749 112.017 20.5057C112.155 20.148 112.224 19.7557 112.224 19.3288C112.224 18.9134 112.155 18.5211 112.017 18.1519C111.879 17.7826 111.683 17.4595 111.429 17.1826C111.176 16.8942 110.865 16.6692 110.496 16.5076C110.139 16.3461 109.736 16.2653 109.286 16.2653C108.848 16.2653 108.451 16.3461 108.094 16.5076C107.736 16.6692 107.437 16.8942 107.195 17.1826C106.941 17.4595 106.745 17.7826 106.607 18.1519C106.469 18.5211 106.4 18.9134 106.4 19.3288C106.4 19.7557 106.469 20.148 106.607 20.5057C106.745 20.8749 106.941 21.198 107.195 21.4749C107.437 21.7519 107.736 21.9711 108.094 22.1326C108.451 22.3057 108.848 22.3865 109.286 22.3749Z" fill="#E91E4D"></path><path d="M122.181 16.5251C122.008 16.4904 121.864 16.4674 121.748 16.4558C121.645 16.4443 121.518 16.4385 121.368 16.4385C120.4 16.4385 119.68 16.7501 119.208 17.3731C118.724 17.9962 118.482 18.827 118.482 19.8654V23.6558H116.84V15.002H118.482V16.6981C118.712 16.1558 119.098 15.7116 119.64 15.3654C120.181 15.0308 120.758 14.8635 121.368 14.8635C121.702 14.8635 121.973 14.9097 122.181 15.002V16.5251Z" fill="#E91E4D"></path><path d="M128.489 23.6558C128.328 23.6904 128.109 23.7192 127.832 23.7423C127.556 23.7654 127.279 23.7769 127.003 23.7769C126.738 23.7769 126.444 23.7538 126.121 23.7077C125.81 23.65 125.516 23.5231 125.24 23.3269C124.963 23.1308 124.733 22.8308 124.548 22.4269C124.375 22.0115 124.289 21.4519 124.289 20.7481V16.3865H122.682V15.0019H124.289V12.0769H125.931V15.0019H128.178V16.3865H125.931V20.3673C125.931 20.7827 125.966 21.1173 126.035 21.3711C126.115 21.6134 126.219 21.8038 126.346 21.9423C126.473 22.0692 126.617 22.15 126.778 22.1846C126.951 22.2308 127.147 22.2538 127.366 22.2538C127.538 22.2538 127.74 22.2538 127.971 22.2538C128.189 22.2538 128.362 22.2308 128.489 22.1846V23.6558Z" fill="#E91E4D"></path><path d="M140.587 16.8193L138.168 23.6558H137.027L133.674 15.002H135.437L137.597 21.1116L139.775 15.002H141.4L143.56 21.1116L145.738 15.002H147.501L144.148 23.6558H143.007L140.587 16.8193Z" fill="#E91E4D"></path><path d="M148.573 11.7135C148.573 11.3443 148.7 11.027 148.953 10.7616C149.207 10.4962 149.518 10.3635 149.887 10.3635C150.256 10.3635 150.572 10.4962 150.837 10.7616C151.102 11.027 151.235 11.3443 151.235 11.7135C151.235 12.0828 151.102 12.3943 150.837 12.6481C150.572 12.902 150.256 13.0289 149.887 13.0289C149.518 13.0289 149.207 12.902 148.953 12.6481C148.7 12.3943 148.573 12.0828 148.573 11.7135ZM149.057 15.002H150.716V23.6558H149.057V15.002Z" fill="#E91E4D"></path><path d="M158.408 23.6558C158.235 23.6904 158.01 23.7192 157.734 23.7423C157.469 23.7654 157.198 23.7769 156.921 23.7769C156.645 23.7769 156.351 23.7538 156.04 23.7077C155.717 23.65 155.423 23.5231 155.158 23.3269C154.882 23.1308 154.651 22.8308 154.467 22.4269C154.283 22.0115 154.19 21.4519 154.19 20.7481V16.3865H152.583V15.0019H154.19V12.0769H155.85V15.0019H158.097V16.3865H155.85V20.3673C155.85 20.7827 155.884 21.1173 155.953 21.3711C156.023 21.6134 156.12 21.8038 156.247 21.9423C156.374 22.0692 156.524 22.15 156.697 22.1846C156.869 22.2308 157.06 22.2538 157.267 22.2538C157.451 22.2538 157.653 22.2538 157.872 22.2538C158.091 22.2538 158.269 22.2308 158.408 22.1846V23.6558Z" fill="#E91E4D"></path><path d="M160.17 10.3115H161.829V16.525C162.083 15.9942 162.469 15.5673 162.987 15.2442C163.506 14.9327 164.134 14.7769 164.871 14.7769C165.482 14.7769 166.006 14.875 166.444 15.0711C166.87 15.2673 167.21 15.55 167.464 15.9192C167.706 16.2538 167.879 16.6231 167.982 17.0269C168.086 17.4308 168.138 17.9384 168.138 18.55V23.6558H166.479V19.0692C166.479 18.6769 166.438 18.3019 166.358 17.9442C166.288 17.5981 166.167 17.2981 165.995 17.0442C165.822 16.8019 165.597 16.6058 165.321 16.4558C165.032 16.3173 164.687 16.2481 164.284 16.2481C163.869 16.2481 163.506 16.3288 163.195 16.4904C162.895 16.6519 162.642 16.8711 162.434 17.1481C162.238 17.425 162.088 17.7423 161.985 18.1C161.881 18.4461 161.829 18.8096 161.829 19.1904V23.6558H160.17V10.3115Z" fill="#E91E4D"></path><path fill-rule="evenodd" clip-rule="evenodd" d="M96.8938 35.8922V44.5461H95.2518V43.0403C94.9753 43.5826 94.5605 44.0038 94.0074 44.3038C93.4543 44.6153 92.8609 44.7711 92.2271 44.7711C91.5588 44.7711 90.9539 44.6499 90.4123 44.4076C89.8592 44.1653 89.3926 43.8307 89.0123 43.4038C88.6205 42.9884 88.3152 42.5095 88.0963 41.9672C87.8889 41.4134 87.7852 40.8307 87.7852 40.2192C87.7852 39.6076 87.8889 39.0249 88.0963 38.4711C88.3152 37.9172 88.6205 37.4326 89.0123 37.0172C89.3926 36.6019 89.8592 36.273 90.4123 36.0307C90.9539 35.7884 91.5588 35.6672 92.2271 35.6672C92.8609 35.6672 93.4543 35.8172 94.0074 36.1172C94.5605 36.4288 94.9753 36.8499 95.2518 37.3807V35.8922H96.8938ZM92.3135 43.2826C92.7629 43.2826 93.1662 43.1961 93.5234 43.023C93.8921 42.8615 94.2033 42.6422 94.4568 42.3653C94.7103 42.0999 94.9061 41.7826 95.0444 41.4134C95.1827 41.0442 95.2518 40.6461 95.2518 40.2192C95.2518 39.8038 95.1827 39.4115 95.0444 39.0422C94.9061 38.673 94.7103 38.3499 94.4568 38.073C94.2033 37.7845 93.8921 37.5595 93.5234 37.398C93.1662 37.2365 92.7629 37.1557 92.3135 37.1557C91.8757 37.1557 91.4782 37.2365 91.121 37.398C90.7638 37.5595 90.4584 37.7845 90.2049 38.073C89.9629 38.3499 89.7728 38.673 89.6345 39.0422C89.4963 39.4115 89.4271 39.8038 89.4271 40.2192C89.4271 40.6461 89.4963 41.0442 89.6345 41.4134C89.7728 41.7826 89.9629 42.0999 90.2049 42.3653C90.4584 42.6422 90.7638 42.8615 91.121 43.023C91.4782 43.1961 91.8757 43.2826 92.3135 43.2826Z" fill="#E91E4D"></path><path d="M106.418 32.7596V37.5365H112.173V39.0942H106.418V44.5461H104.672V31.2019H112.173V32.7596H106.418Z" fill="#E91E4D"></path><path d="M120.003 37.4154C119.818 37.3808 119.674 37.3578 119.57 37.3462C119.455 37.3347 119.323 37.3289 119.173 37.3289C118.205 37.3289 117.485 37.6404 117.012 38.2635C116.54 38.8866 116.304 39.7174 116.304 40.7558V44.5462H114.645V35.8924H116.304V37.5885C116.534 37.0462 116.914 36.6078 117.445 36.2731C117.986 35.927 118.562 35.7539 119.173 35.7539C119.507 35.7539 119.784 35.8001 120.003 35.8924V37.4154Z" fill="#E91E4D"></path><path d="M121.092 32.6039C121.092 32.2462 121.219 31.9289 121.472 31.652C121.726 31.3866 122.037 31.2539 122.405 31.2539C122.774 31.2539 123.097 31.3866 123.373 31.652C123.638 31.9289 123.771 32.2462 123.771 32.6039C123.771 32.9731 123.638 33.2847 123.373 33.5385C123.097 33.8039 122.774 33.9366 122.405 33.9366C122.037 33.9366 121.726 33.8039 121.472 33.5385C121.219 33.2847 121.092 32.9731 121.092 32.6039ZM121.593 35.8924H123.252V44.5462H121.593V35.8924Z" fill="#E91E4D"></path><path fill-rule="evenodd" clip-rule="evenodd" d="M127.193 40.6692C127.204 41.0384 127.268 41.3845 127.383 41.7076C127.487 42.0307 127.642 42.3134 127.85 42.5557C128.057 42.8095 128.328 43.0057 128.662 43.1442C128.996 43.2942 129.405 43.3692 129.889 43.3692C130.534 43.3692 131.024 43.2307 131.358 42.9538C131.692 42.6884 131.929 42.3711 132.067 42.0019H133.743C133.674 42.3711 133.536 42.7172 133.329 43.0403C133.121 43.3749 132.856 43.6692 132.533 43.923C132.199 44.1769 131.808 44.3788 131.358 44.5288C130.92 44.6903 130.431 44.7711 129.889 44.7711C129.163 44.7711 128.524 44.6499 127.971 44.4076C127.429 44.1653 126.98 43.8365 126.622 43.4211C126.265 43.0172 126 42.5384 125.827 41.9845C125.643 41.4307 125.551 40.8422 125.551 40.2192C125.551 39.573 125.649 38.973 125.845 38.4192C126.029 37.8538 126.306 37.3692 126.674 36.9653C127.031 36.5615 127.475 36.2442 128.005 36.0134C128.535 35.7826 129.14 35.6672 129.82 35.6672C130.385 35.6672 130.909 35.7653 131.393 35.9615C131.888 36.1576 132.315 36.4345 132.672 36.7922C133.029 37.1499 133.311 37.5653 133.519 38.0384C133.726 38.5115 133.83 39.0249 133.83 39.5788C133.83 39.7057 133.824 39.8557 133.813 40.0288C133.813 40.2134 133.789 40.4269 133.743 40.6692H127.193ZM129.785 36.948C129.036 36.948 128.426 37.1615 127.953 37.5884C127.492 38.0153 127.245 38.6211 127.21 39.4057H132.222C132.222 38.6442 131.992 38.0442 131.531 37.6057C131.07 37.1672 130.488 36.948 129.785 36.948Z" fill="#E91E4D"></path><path d="M136.232 35.8922H137.874V37.4153C138.128 36.8845 138.52 36.4576 139.05 36.1345C139.568 35.823 140.196 35.6672 140.934 35.6672C141.544 35.6672 142.063 35.7653 142.489 35.9615C142.927 36.1576 143.273 36.4403 143.526 36.8095C143.768 37.1442 143.935 37.5134 144.027 37.9172C144.131 38.3211 144.183 38.8288 144.183 39.4403V44.5461H142.524V39.9595C142.524 39.5672 142.489 39.1922 142.42 38.8345C142.339 38.4884 142.213 38.1942 142.04 37.9519C141.867 37.698 141.642 37.4961 141.366 37.3461C141.089 37.2076 140.749 37.1384 140.346 37.1384C139.92 37.1384 139.557 37.2192 139.257 37.3807C138.946 37.5422 138.693 37.7615 138.497 38.0384C138.289 38.3153 138.134 38.6326 138.03 38.9903C137.926 39.3365 137.874 39.7057 137.874 40.098V44.5461H136.232V35.8922Z" fill="#E91E4D"></path><path fill-rule="evenodd" clip-rule="evenodd" d="M153.758 43.0404C153.47 43.5827 153.05 44.0038 152.497 44.3038C151.944 44.6154 151.35 44.7711 150.716 44.7711C150.06 44.7711 149.46 44.65 148.919 44.4077C148.366 44.1654 147.899 43.8308 147.519 43.4038C147.127 42.9884 146.822 42.5096 146.603 41.9673C146.384 41.4134 146.274 40.8308 146.274 40.2192C146.274 39.6077 146.384 39.025 146.603 38.4711C146.822 37.9173 147.127 37.4327 147.519 37.0173C147.899 36.6019 148.366 36.2731 148.919 36.0308C149.46 35.7884 150.06 35.6673 150.716 35.6673C151.35 35.6673 151.944 35.8173 152.497 36.1173C153.05 36.4288 153.47 36.85 153.758 37.3808V31.2019H155.383V44.5461H153.758V43.0404ZM150.82 43.2827C151.258 43.2827 151.661 43.1961 152.03 43.0231C152.387 42.8615 152.693 42.6423 152.946 42.3654C153.2 42.1 153.395 41.7827 153.534 41.4134C153.683 41.0442 153.758 40.6461 153.758 40.2192C153.758 39.8038 153.683 39.4115 153.534 39.0423C153.395 38.6731 153.2 38.35 152.946 38.0731C152.693 37.7961 152.387 37.5711 152.03 37.3981C151.661 37.2365 151.258 37.1558 150.82 37.1558C150.371 37.1558 149.967 37.2365 149.61 37.3981C149.253 37.5711 148.953 37.7961 148.711 38.0731C148.469 38.35 148.274 38.6731 148.124 39.0423C147.986 39.4115 147.916 39.8038 147.916 40.2192C147.916 40.6461 147.986 41.0442 148.124 41.4134C148.274 41.7827 148.469 42.1 148.711 42.3654C148.953 42.6423 149.253 42.8615 149.61 43.0231C149.967 43.1961 150.371 43.2827 150.82 43.2827Z" fill="#E91E4D"></path></g><defs><clipPath id="clip0_607_15190"><rect width="168" height="54" fill="white"></rect></clipPath></defs></svg> 